<svg width="860" height="280" viewBox="0 0 860 280" xmlns="http://www.w3.org/2000/svg">
<defs>
  <radialGradient id="bg" cx="50%" cy="40%" r="70%">
    <stop offset="0%" stop-color="#160429"/>
    <stop offset="100%" stop-color="#060610"/>
  </radialGradient>
  <linearGradient id="ul" x1="0%" y1="0%" x2="100%" y2="0%">
    <stop offset="0%" stop-color="#7C3AED"/>
    <stop offset="50%" stop-color="#00FFFF"/>
    <stop offset="100%" stop-color="#FF6B6B"/>
  </linearGradient>
  <linearGradient id="bodyGrad" x1="0%" y1="0%" x2="100%" y2="100%">
    <stop offset="0%" stop-color="#8B5CF6"/>
    <stop offset="100%" stop-color="#6D28D9"/>
  </linearGradient>
  <filter id="glow">
    <feGaussianBlur stdDeviation="4" result="b"/>
    <feMerge><feMergeNode in="b"/><feMergeNode in="SourceGraphic"/></feMerge>
  </filter>
</defs>

<!-- Background -->
<rect width="860" height="280" fill="url(#bg)"/>

<!-- Twinkling stars — pure SMIL -->
<circle cx="28"  cy="18"  r="1.5" fill="#00FFFF"><animate attributeName="opacity" values="0.9;0.1;0.9" dur="2.2s" repeatCount="indefinite"/></circle>
<circle cx="110" cy="8"   r="1.2" fill="#A78BFA"><animate attributeName="opacity" values="0.2;1;0.2"   dur="1.8s" repeatCount="indefinite"/></circle>
<circle cx="290" cy="26"  r="1.5" fill="#ffffff"><animate attributeName="opacity" values="0.9;0.1;0.9" dur="3.1s" repeatCount="indefinite" begin="0.6s"/></circle>
<circle cx="490" cy="14"  r="1.2" fill="#00FFFF"><animate attributeName="opacity" values="0.2;1;0.2"   dur="2.5s" repeatCount="indefinite" begin="1s"/></circle>
<circle cx="670" cy="22"  r="1.5" fill="#A78BFA"><animate attributeName="opacity" values="0.9;0.1;0.9" dur="2.2s" repeatCount="indefinite"/></circle>
<circle cx="830" cy="10"  r="1.2" fill="#ffffff"><animate attributeName="opacity" values="0.2;1;0.2"   dur="1.8s" repeatCount="indefinite"/></circle>
<circle cx="55"  cy="245" r="1.2" fill="#A78BFA"><animate attributeName="opacity" values="0.9;0.1;0.9" dur="3.1s" repeatCount="indefinite"/></circle>
<circle cx="800" cy="252" r="1.5" fill="#00FFFF"><animate attributeName="opacity" values="0.2;1;0.2"   dur="2.5s" repeatCount="indefinite"/></circle>
<circle cx="430" cy="265" r="1.2" fill="#ffffff"><animate attributeName="opacity" values="0.9;0.1;0.9" dur="2.2s" repeatCount="indefinite"/></circle>
<circle cx="620" cy="258" r="1.5" fill="#A78BFA"><animate attributeName="opacity" values="0.2;1;0.2"   dur="1.8s" repeatCount="indefinite"/></circle>
<circle cx="750" cy="30"  r="1"   fill="#00FFFF"><animate attributeName="opacity" values="0.9;0.1;0.9" dur="2.6s" repeatCount="indefinite"/></circle>
<circle cx="380" cy="10"  r="1"   fill="#FF6B6B"><animate attributeName="opacity" values="0.2;1;0.2"   dur="2.0s" repeatCount="indefinite"/></circle>

<!-- ═══════════════════════════════════ -->
<!--  CHARACTER  (bobbing up/down)      -->
<!-- ═══════════════════════════════════ -->
<g>
  <animateTransform attributeName="transform" type="translate" values="0,0; 0,-8; 0,0" dur="2.2s" repeatCount="indefinite" calcMode="spline" keySplines="0.4 0 0.6 1; 0.4 0 0.6 1"/>

  <!-- ground shadow -->
  <ellipse cx="135" cy="276" rx="50" ry="6" fill="#000" opacity="0.25"/>

  <!-- BODY -->
  <rect x="102" y="168" width="66" height="76" rx="16" fill="url(#bodyGrad)"/>
  <rect x="114" y="196" width="42" height="26" rx="8" fill="#5B21B6" opacity="0.75"/>
  <line x1="128" y1="177" x2="123" y2="196" stroke="#C4B5FD" stroke-width="1.5" stroke-linecap="round"/>
  <line x1="142" y1="177" x2="147" y2="196" stroke="#C4B5FD" stroke-width="1.5" stroke-linecap="round"/>

  <!-- LEGS -->
  <rect x="107" y="237" width="23" height="30" rx="10" fill="#1E1B4B"/>
  <rect x="140" y="237" width="23" height="30" rx="10" fill="#1E1B4B"/>
  <ellipse cx="119" cy="270" rx="17" ry="7" fill="#00FFFF"/>
  <ellipse cx="152" cy="270" rx="17" ry="7" fill="#00FFFF"/>
  <ellipse cx="114" cy="267" rx="6"  ry="3"  fill="#ffffff" opacity="0.2"/>
  <ellipse cx="147" cy="267" rx="6"  ry="3"  fill="#ffffff" opacity="0.2"/>

  <!-- LEFT ARM + LAPTOP -->
  <rect x="80" y="172" width="20" height="46" rx="10" fill="url(#bodyGrad)"/>
  <circle cx="90" cy="220" r="11" fill="#FCD34D"/>
  <rect x="50" y="202" width="42" height="28" rx="4" fill="#1E1B4B" stroke="#00FFFF" stroke-width="1.3"/>
  <rect x="52" y="204" width="38" height="22" rx="3" fill="#0D0221"/>
  <line x1="55" y1="208" x2="70" y2="208" stroke="#00FFFF" stroke-width="1.1" opacity="0.9"/>
  <line x1="55" y1="212" x2="82" y2="212" stroke="#A78BFA" stroke-width="1.1" opacity="0.8"/>
  <line x1="55" y1="216" x2="74" y2="216" stroke="#00FFFF" stroke-width="1.1" opacity="0.7"/>
  <line x1="55" y1="220" x2="78" y2="220" stroke="#FF6B6B" stroke-width="1.1" opacity="0.6"/>
  <rect x="52" y="228" width="38" height="3" rx="1.5" fill="#2D2B55"/>

  <!-- RIGHT ARM WAVING — animateTransform rotate -->
  <g>
    <animateTransform attributeName="transform" type="rotate" values="-20 179 172; 28 179 172; -20 179 172" dur="0.7s" repeatCount="indefinite" calcMode="spline" keySplines="0.4 0 0.6 1; 0.4 0 0.6 1"/>
    <rect x="169" y="168" width="20" height="46" rx="10" fill="url(#bodyGrad)"/>
    <circle cx="179" cy="216" r="11" fill="#FCD34D"/>
    <line x1="171" y1="210" x2="165" y2="201" stroke="#FCD34D" stroke-width="4" stroke-linecap="round"/>
    <line x1="179" y1="207" x2="177" y2="197" stroke="#FCD34D" stroke-width="4" stroke-linecap="round"/>
    <line x1="187" y1="210" x2="189" y2="200" stroke="#FCD34D" stroke-width="4" stroke-linecap="round"/>
  </g>

  <!-- NECK -->
  <rect x="126" y="153" width="18" height="18" rx="6" fill="#FCD34D"/>

  <!-- HEAD -->
  <circle cx="135" cy="126" r="40" fill="#FCD34D"/>

  <!-- HAIR -->
  <ellipse cx="135" cy="92"  rx="40" ry="16" fill="#1a0a2e"/>
  <rect x="95"  y="92"  width="80" height="20" rx="5" fill="#1a0a2e"/>
  <polygon points="104,92 96,70 112,86"  fill="#1a0a2e"/>
  <polygon points="120,88 116,65 127,83" fill="#1a0a2e"/>
  <polygon points="135,87 131,63 142,81" fill="#1a0a2e"/>
  <polygon points="150,88 147,65 157,83" fill="#1a0a2e"/>
  <polygon points="165,92 160,70 173,87" fill="#1a0a2e"/>

  <!-- EYES with blink -->
  <!-- left eye -->
  <circle cx="120" cy="130" r="10"  fill="white"/>
  <circle cx="122" cy="130" r="6.5" fill="#1a0a2e"/>
  <circle cx="124" cy="127" r="2.2" fill="white"/>
  <!-- blink: eyelid covers left eye -->
  <rect x="110" y="126" width="20" height="0" rx="4" fill="#FCD34D">
    <animate attributeName="height" values="0;0;0;0;0;0;0;0;12;0;0;0;0;0;0;0;0;0;12;0" dur="5s" repeatCount="indefinite"/>
    <animate attributeName="y"      values="130;130;130;130;130;130;130;130;122;130;130;130;130;130;130;130;130;130;122;130" dur="5s" repeatCount="indefinite"/>
  </rect>

  <!-- right eye -->
  <circle cx="150" cy="130" r="10"  fill="white"/>
  <circle cx="152" cy="130" r="6.5" fill="#1a0a2e"/>
  <circle cx="154" cy="127" r="2.2" fill="white"/>
  <!-- blink right -->
  <rect x="140" y="126" width="20" height="0" rx="4" fill="#FCD34D">
    <animate attributeName="height" values="0;0;0;0;0;0;0;0;12;0;0;0;0;0;0;0;0;0;12;0" dur="5s" repeatCount="indefinite" begin="0.08s"/>
    <animate attributeName="y"      values="130;130;130;130;130;130;130;130;122;130;130;130;130;130;130;130;130;130;122;130" dur="5s" repeatCount="indefinite" begin="0.08s"/>
  </rect>

  <!-- SMILE -->
  <path d="M 117 146 Q 135 164 153 146" stroke="#1a0a2e" stroke-width="3.5" fill="none" stroke-linecap="round"/>

  <!-- GLASSES -->
  <rect x="107" y="120" width="22" height="18" rx="7" fill="none" stroke="#00FFFF" stroke-width="2.5"/>
  <rect x="141" y="120" width="22" height="18" rx="7" fill="none" stroke="#00FFFF" stroke-width="2.5"/>
  <line x1="129" y1="129" x2="141" y2="129" stroke="#00FFFF" stroke-width="2.2"/>
  <line x1="107" y1="129" x2="100" y2="126" stroke="#00FFFF" stroke-width="2"/>
  <line x1="163" y1="129" x2="170" y2="126" stroke="#00FFFF" stroke-width="2"/>

  <!-- BLUSH -->
  <ellipse cx="106" cy="144" rx="10" ry="6" fill="#FF6B6B" opacity="0.18"/>
  <ellipse cx="164" cy="144" rx="10" ry="6" fill="#FF6B6B" opacity="0.18"/>

</g><!-- /character -->


<!-- ═══════════════════════════════════ -->
<!--  SPEECH BUBBLE  (bounce SMIL)      -->
<!-- ═══════════════════════════════════ -->
<g>
  <animateTransform attributeName="transform" type="translate" values="0,0; 0,-5; 0,0" dur="2.8s" repeatCount="indefinite" calcMode="spline" keySplines="0.4 0 0.6 1; 0.4 0 0.6 1"/>

  <!-- shadow -->
  <rect x="206" y="24" width="228" height="90" rx="20" fill="#000" opacity="0.25"/>
  <!-- body -->
  <rect x="203" y="20" width="228" height="90" rx="20" fill="#0D0221" stroke="#00FFFF" stroke-width="2.2"/>
  <!-- tail -->
  <polygon points="224,110 200,136 248,116" fill="#0D0221"/>
  <line x1="222" y1="109" x2="201" y2="135" stroke="#00FFFF" stroke-width="2.2"/>
  <line x1="248" y1="115" x2="224" y2="109" stroke="#0D0221" stroke-width="5"/>
  <!-- Hi text -->
  <text x="317" y="68" text-anchor="middle" font-size="23" font-weight="bold" fill="#00FFFF" filter="url(#glow)">&#x1F44B; Hi There!</text>
  <!-- sub -->
  <text x="317" y="96" text-anchor="middle" font-size="14" fill="#C4B5FD">Welcome to my profile &#x2728;</text>
</g>


<!-- ═══════════════════════════════════ -->
<!--  NAME + ROLES  right side          -->
<!-- ═══════════════════════════════════ -->

<!-- divider -->
<line x1="450" y1="30" x2="450" y2="268" stroke="#7C3AED" stroke-width="0.7" opacity="0.2"/>

<!-- main name with glow -->
<text x="620" y="162" text-anchor="middle" font-size="27" font-weight="bold" fill="#FFFFFF" filter="url(#glow)">Deepamjyoti Mohanty</text>

<!-- animated colour-shift on name via fill animate -->
<text x="620" y="162" text-anchor="middle" font-size="27" font-weight="bold" fill="#00FFFF" opacity="0">
  <animate attributeName="opacity" values="0;0;0;0;0;0;0;0;0.6;0.3;0" dur="6s" repeatCount="indefinite"/>
  <animate attributeName="x"       values="620;617;623;620;620;620;620;620;620;620;620" dur="6s" repeatCount="indefinite"/>
  Deepamjyoti Mohanty
</text>
<text x="620" y="162" text-anchor="middle" font-size="27" font-weight="bold" fill="#FF6B6B" opacity="0">
  <animate attributeName="opacity" values="0;0;0;0;0;0;0;0;0;0.5;0" dur="6s" repeatCount="indefinite" begin="0.5s"/>
  <animate attributeName="x"       values="620;623;617;620;620;620;620;620;620;623;620" dur="6s" repeatCount="indefinite" begin="0.5s"/>
  Deepamjyoti Mohanty
</text>

<!-- underline sweep using stroke-dashoffset SMIL -->
<line x1="462" y1="172" x2="778" y2="172" stroke="url(#ul)" stroke-width="3" stroke-linecap="round" stroke-dasharray="320" stroke-dashoffset="320">
  <animate attributeName="stroke-dashoffset" values="320;0;-320" dur="2.4s" repeatCount="indefinite" calcMode="spline" keySplines="0.4 0 0.6 1; 0.4 0 0.6 1"/>
</line>

<!-- role line 1 -->
<text x="620" y="198" text-anchor="middle" font-size="12.5" fill="#A78BFA">
  <animate attributeName="opacity" values="1;1;1;0;0;0;0;0;0;0;1" dur="10s" repeatCount="indefinite"/>
  &#x26A1; Full-Stack Engineer | ML Engineer | Data Analyst
</text>
<!-- role line 2 -->
<text x="620" y="198" text-anchor="middle" font-size="12.5" fill="#00FFFF" opacity="0">
  <animate attributeName="opacity" values="0;0;0;0;1;1;1;0;0;0;0" dur="10s" repeatCount="indefinite"/>
  &#x1F680; React · Node.js · Python · XGBoost · Docker · AWS
</text>
<!-- role line 3 -->
<text x="620" y="198" text-anchor="middle" font-size="12.5" fill="#FF6B6B" opacity="0">
  <animate attributeName="opacity" values="0;0;0;0;0;0;0;0;1;1;0" dur="10s" repeatCount="indefinite"/>
  &#x1F393; B.Tech CSE 2026 · CGPA 8.03 · Open to Work
</text>

<!-- thin rule -->
<line x1="462" y1="213" x2="778" y2="213" stroke="#7C3AED" stroke-width="0.8" opacity="0.4"/>

<!-- available pulsing dot -->
<circle cx="475" cy="233" r="14" fill="none" stroke="#00ff88" stroke-width="1.5" opacity="0">
  <animate attributeName="r"       values="6;16;6"   dur="1.5s" repeatCount="indefinite"/>
  <animate attributeName="opacity" values="0.8;0;0.8" dur="1.5s" repeatCount="indefinite"/>
</circle>
<circle cx="475" cy="233" r="5" fill="#00ff88">
  <animate attributeName="opacity" values="1;0.3;1" dur="1.4s" repeatCount="indefinite"/>
</circle>
<text x="490" y="238" font-size="12" fill="#00ff88">Available for opportunities</text>

<!-- tech tag pills -->
<rect x="462" y="250" width="46" height="18" rx="5" fill="#160429" stroke="#7C3AED" stroke-width="1.1"/>
<text x="485" y="263" text-anchor="middle" font-size="9.5" fill="#A78BFA">Python</text>

<rect x="514" y="250" width="36" height="18" rx="5" fill="#160429" stroke="#00FFFF" stroke-width="1.1"/>
<text x="532" y="263" text-anchor="middle" font-size="9.5" fill="#00FFFF">Java</text>

<rect x="556" y="250" width="40" height="18" rx="5" fill="#160429" stroke="#FF6B6B" stroke-width="1.1"/>
<text x="576" y="263" text-anchor="middle" font-size="9.5" fill="#FF6B6B">React</text>

<rect x="602" y="250" width="36" height="18" rx="5" fill="#160429" stroke="#00ff88" stroke-width="1.1"/>
<text x="620" y="263" text-anchor="middle" font-size="9.5" fill="#00ff88">AWS</text>

<rect x="644" y="250" width="44" height="18" rx="5" fill="#160429" stroke="#FBBF24" stroke-width="1.1"/>
<text x="666" y="263" text-anchor="middle" font-size="9.5" fill="#FBBF24">Docker</text>

<rect x="694" y="250" width="28" height="18" rx="5" fill="#160429" stroke="#A78BFA" stroke-width="1.1"/>
<text x="708" y="263" text-anchor="middle" font-size="9.5" fill="#A78BFA">ML</text>

<rect x="728" y="250" width="46" height="18" rx="5" fill="#160429" stroke="#00FFFF" stroke-width="1.1"/>
<text x="751" y="263" text-anchor="middle" font-size="9.5" fill="#00FFFF">Node.js</text>

</svg>
